<svg width="1920" height="1064" viewBox="0 0 1920 1064" fill="none" xmlns="http://www.w3.org/2000/svg">
<path d="M1984 2191.12L-23.999 2191.12L-23.9987 -1759.02L1984 -1759.02L1984 2191.12Z" fill="#071D49"/>
<g filter="url(#filter0_f_184_537)">
<path d="M1724 109.069C1724 -60.593 1580.51 -198.132 1403.5 -198.132C1226.49 -198.132 1083 -60.593 1083 109.069C1083 278.732 1226.49 416.271 1403.5 416.271C1580.51 416.271 1724 278.732 1724 109.069Z" fill="#0C0C0C" fill-opacity="0.46"/>
</g>
<g filter="url(#filter1_f_184_537)">
<path d="M1147 88.2289C1147 -124.179 1327.21 -296.37 1549.5 -296.37C1771.8 -296.37 1952 -124.179 1952 88.229C1952 300.637 1771.8 472.828 1549.5 472.828C1327.21 472.828 1147 300.637 1147 88.2289Z" fill="#005EB8" fill-opacity="0.28"/>
</g>
<g filter="url(#filter2_f_184_537)">
<path d="M232.251 1660.05C-62.6062 1502.66 -168.104 1161.23 -3.38524 897.456C161.334 633.678 533.894 547.436 828.751 704.829C1123.61 862.222 1229.11 1203.65 1064.39 1467.43C899.668 1731.2 527.108 1817.45 232.251 1660.05Z" fill="#788DFF" fill-opacity="0.12"/>
</g>
<g filter="url(#filter3_f_184_537)">
<path d="M2033 364.194C2033 263.663 1947.71 182.167 1842.5 182.167C1737.29 182.167 1652 263.663 1652 364.194C1652 464.725 1737.29 546.222 1842.5 546.222C1947.71 546.222 2033 464.725 2033 364.194Z" fill="#007C7C" fill-opacity="0.46"/>
</g>
<g filter="url(#filter4_f_184_537)">
<path d="M615.001 371.162C615.001 -2.10134 299.586 -304.691 -89.499 -304.691C-478.584 -304.691 -793.999 -2.10146 -793.999 371.161C-793.999 744.424 -478.584 1047.01 -89.4991 1047.01C299.585 1047.01 615.001 744.424 615.001 371.162Z" fill="#005EB8" fill-opacity="0.22"/>
</g>
<g filter="url(#filter5_f_184_537)">
<path d="M2.7677e-06 1206.8L1920 724L1920 2373L9.45312e-06 2373L2.7677e-06 1206.8Z" fill="#071D49"/>
</g>
<defs>
<filter id="filter0_f_184_537" x="923.001" y="-358.132" width="961" height="934.402" filterUnits="userSpaceOnUse" color-interpolation-filters="sRGB">
<feFlood flood-opacity="0" result="BackgroundImageFix"/>
<feBlend mode="normal" in="SourceGraphic" in2="BackgroundImageFix" result="shape"/>
<feGaussianBlur stdDeviation="80" result="effect1_foregroundBlur_184_537"/>
</filter>
<filter id="filter1_f_184_537" x="1117" y="-326.37" width="865" height="829.197" filterUnits="userSpaceOnUse" color-interpolation-filters="sRGB">
<feFlood flood-opacity="0" result="BackgroundImageFix"/>
<feBlend mode="normal" in="SourceGraphic" in2="BackgroundImageFix" result="shape"/>
<feGaussianBlur stdDeviation="15" result="effect1_foregroundBlur_184_537"/>
</filter>
<filter id="filter2_f_184_537" x="-101.154" y="606.182" width="1263.31" height="1152.52" filterUnits="userSpaceOnUse" color-interpolation-filters="sRGB">
<feFlood flood-opacity="0" result="BackgroundImageFix"/>
<feBlend mode="normal" in="SourceGraphic" in2="BackgroundImageFix" result="shape"/>
<feGaussianBlur stdDeviation="10" result="effect1_foregroundBlur_184_537"/>
</filter>
<filter id="filter3_f_184_537" x="1492" y="22.167" width="701" height="684.055" filterUnits="userSpaceOnUse" color-interpolation-filters="sRGB">
<feFlood flood-opacity="0" result="BackgroundImageFix"/>
<feBlend mode="normal" in="SourceGraphic" in2="BackgroundImageFix" result="shape"/>
<feGaussianBlur stdDeviation="80" result="effect1_foregroundBlur_184_537"/>
</filter>
<filter id="filter4_f_184_537" x="-953.999" y="-464.691" width="1729" height="1671.7" filterUnits="userSpaceOnUse" color-interpolation-filters="sRGB">
<feFlood flood-opacity="0" result="BackgroundImageFix"/>
<feBlend mode="normal" in="SourceGraphic" in2="BackgroundImageFix" result="shape"/>
<feGaussianBlur stdDeviation="80" result="effect1_foregroundBlur_184_537"/>
</filter>
<filter id="filter5_f_184_537" x="-310" y="414" width="2540" height="2269" filterUnits="userSpaceOnUse" color-interpolation-filters="sRGB">
<feFlood flood-opacity="0" result="BackgroundImageFix"/>
<feBlend mode="normal" in="SourceGraphic" in2="BackgroundImageFix" result="shape"/>
<feGaussianBlur stdDeviation="155" result="effect1_foregroundBlur_184_537"/>
</filter>
</defs>
</svg>
