<svg width="1551" height="670" viewBox="0 0 1551 670" fill="none" xmlns="http://www.w3.org/2000/svg">
<path d="M8 115L253 115V29.9467C253 17.8259 243.174 8 231.053 8L8 8V115Z" fill="#335CFE" fill-opacity="0.71"/>
<path d="M0 107L245 107V21.9467C245 9.82587 235.174 0 223.053 0L0 0V107Z" fill="#3383FE"/>
<path d="M30.5493 61.438V80.6465H26.4229V66.1313L21.9668 67.4893V64.2988L30.1406 61.438H30.5493ZM36.442 60.2075H51.13V63.0425H36.442V60.2075ZM43.786 63.8255C44.992 63.8255 46.054 64.0235 46.972 64.4195C47.908 64.8155 48.637 65.3555 49.159 66.0395C49.681 66.7235 49.942 67.5335 49.942 68.4695C49.942 69.3695 49.681 70.1705 49.159 70.8725C48.637 71.5565 47.908 72.0965 46.972 72.4925C46.054 72.8705 44.992 73.0595 43.786 73.0595C42.598 73.0595 41.536 72.8705 40.6 72.4925C39.664 72.0965 38.935 71.5565 38.413 70.8725C37.891 70.1705 37.63 69.3695 37.63 68.4695C37.63 67.5335 37.891 66.7235 38.413 66.0395C38.935 65.3555 39.664 64.8155 40.6 64.4195C41.536 64.0235 42.598 63.8255 43.786 63.8255ZM43.786 66.5525C42.994 66.5525 42.346 66.7145 41.842 67.0385C41.338 67.3445 41.086 67.8215 41.086 68.4695C41.086 69.0815 41.338 69.5495 41.842 69.8735C42.346 70.1975 42.994 70.3595 43.786 70.3595C44.596 70.3595 45.244 70.1975 45.73 69.8735C46.234 69.5495 46.486 69.0815 46.486 68.4695C46.486 67.8215 46.234 67.3445 45.73 67.0385C45.244 66.7145 44.596 66.5525 43.786 66.5525ZM52.507 58.0475H56.098V73.7075H52.507V58.0475ZM55.126 64.4735H59.419V67.4165H55.126V64.4735ZM39.412 74.7605H56.098V83.0495H52.507V77.5955H39.412V74.7605ZM42.004 57.8855H45.568V61.8545H42.004V57.8855ZM78.5059 58.0205H82.0969V83.0225H78.5059V58.0205ZM71.1349 60.6125H74.6719C74.6719 62.5205 74.4829 64.3475 74.1049 66.0935C73.7449 67.8215 73.1329 69.4505 72.2689 70.9805C71.4229 72.5105 70.2529 73.9325 68.7589 75.2465C67.2829 76.5425 65.4379 77.7305 63.2239 78.8105L61.3339 75.9755C63.7459 74.8055 65.6629 73.5185 67.0849 72.1145C68.5249 70.6925 69.5599 69.0905 70.1899 67.3085C70.8199 65.5085 71.1349 63.4925 71.1349 61.2605V60.6125ZM62.6839 60.6125H72.8089V63.4745H62.6839V60.6125Z" fill="white"/>
<rect x="19.752" y="19.752" width="25.5574" height="25.9733" rx="12.7787" fill="white"/>
<path d="M33.9062 27.8574V37.2383H32.0545V29.992L29.8298 30.6993V29.2397L33.7069 27.8574H33.9062Z" fill="#3383FE"/>
<rect x="0.548667" y="183.549" width="298.903" height="115.903" rx="8.23001" fill="#E7F4FF"/>
<rect x="0.548667" y="183.549" width="298.903" height="115.903" rx="8.23001" stroke="#2097F6" stroke-width="1.09733"/>
<path d="M89.8672 242.07V242.879C89.8672 244.176 89.6914 245.34 89.3398 246.371C88.9883 247.402 88.4922 248.281 87.8516 249.008C87.2109 249.727 86.4453 250.277 85.5547 250.66C84.6719 251.043 83.6914 251.234 82.6133 251.234C81.543 251.234 80.5625 251.043 79.6719 250.66C78.7891 250.277 78.0234 249.727 77.375 249.008C76.7266 248.281 76.2227 247.402 75.8633 246.371C75.5117 245.34 75.3359 244.176 75.3359 242.879V242.07C75.3359 240.766 75.5117 239.602 75.8633 238.578C76.2148 237.547 76.7109 236.668 77.3516 235.941C78 235.215 78.7656 234.66 79.6484 234.277C80.5391 233.895 81.5195 233.703 82.5898 233.703C83.668 233.703 84.6484 233.895 85.5312 234.277C86.4219 234.66 87.1875 235.215 87.8281 235.941C88.4766 236.668 88.9766 237.547 89.3281 238.578C89.6875 239.602 89.8672 240.766 89.8672 242.07ZM86.3164 242.879V242.047C86.3164 241.141 86.2344 240.344 86.0703 239.656C85.9062 238.969 85.6641 238.391 85.3438 237.922C85.0234 237.453 84.6328 237.102 84.1719 236.867C83.7109 236.625 83.1836 236.504 82.5898 236.504C81.9961 236.504 81.4688 236.625 81.0078 236.867C80.5547 237.102 80.168 237.453 79.8477 237.922C79.5352 238.391 79.2969 238.969 79.1328 239.656C78.9688 240.344 78.8867 241.141 78.8867 242.047V242.879C78.8867 243.777 78.9688 244.574 79.1328 245.27C79.2969 245.957 79.5391 246.539 79.8594 247.016C80.1797 247.484 80.5703 247.84 81.0312 248.082C81.4922 248.324 82.0195 248.445 82.6133 248.445C83.207 248.445 83.7344 248.324 84.1953 248.082C84.6562 247.84 85.043 247.484 85.3555 247.016C85.668 246.539 85.9062 245.957 86.0703 245.27C86.2344 244.574 86.3164 243.777 86.3164 242.879ZM99.2305 233.938V251H95.7266V233.938H99.2305ZM104.48 233.938V236.691H90.5586V233.938H104.48ZM112.393 232.232H123.169V241.616H112.393V232.232ZM120.049 234.728H115.537V239.144H120.049V234.728ZM126.553 230.912H129.745V243.512H126.553V230.912ZM120.601 246.344H123.337V246.656C123.337 247.44 123.145 248.192 122.761 248.912C122.393 249.616 121.833 250.264 121.081 250.856C120.345 251.432 119.433 251.912 118.345 252.296C117.257 252.68 116.001 252.936 114.577 253.064L113.569 250.688C114.529 250.592 115.385 250.448 116.137 250.256C116.905 250.064 117.569 249.832 118.129 249.56C118.705 249.288 119.169 248.992 119.521 248.672C119.889 248.336 120.161 248 120.337 247.664C120.513 247.312 120.601 246.976 120.601 246.656V246.344ZM121.153 246.344H123.913V246.656C123.913 247.04 124.049 247.448 124.321 247.88C124.609 248.296 125.033 248.696 125.593 249.08C126.169 249.464 126.897 249.8 127.777 250.088C128.673 250.376 129.721 250.576 130.921 250.688L129.889 253.064C128.465 252.936 127.209 252.672 126.121 252.272C125.033 251.888 124.121 251.4 123.385 250.808C122.649 250.216 122.089 249.568 121.705 248.864C121.337 248.16 121.153 247.424 121.153 246.656V246.344ZM114.433 244.688H130.057V247.088H114.433V244.688ZM120.625 242.888H123.889V245.816H120.625V242.888ZM154.607 230.912H157.799V247.16H154.607V230.912ZM142.991 250.184H158.375V252.752H142.991V250.184ZM142.991 245.744H146.183V251.672H142.991V245.744ZM144.743 235.28H147.359V236.072C147.359 237.4 147.127 238.656 146.663 239.84C146.215 241.024 145.519 242.056 144.575 242.936C143.647 243.8 142.471 244.44 141.047 244.856L139.535 242.36C140.431 242.088 141.207 241.736 141.863 241.304C142.535 240.856 143.079 240.352 143.495 239.792C143.927 239.232 144.239 238.64 144.431 238.016C144.639 237.376 144.743 236.728 144.743 236.072V235.28ZM145.343 235.28H147.935V236.072C147.935 236.68 148.039 237.288 148.247 237.896C148.471 238.488 148.791 239.048 149.207 239.576C149.639 240.104 150.183 240.576 150.839 240.992C151.511 241.408 152.295 241.736 153.191 241.976L151.703 244.472C150.279 244.072 149.095 243.456 148.151 242.624C147.207 241.792 146.503 240.808 146.039 239.672C145.575 238.536 145.343 237.336 145.343 236.072V235.28ZM140.279 233.456H152.423V235.952H140.279V233.456ZM144.743 231.032H147.959V234.488H144.743V231.032ZM163.87 231.776L178.966 231.776V239.624L163.87 239.624V231.776ZM175.822 234.272L167.014 234.272V237.128L175.822 237.128V234.272ZM161.398 241.736L181.51 241.736V244.256L161.398 244.256V241.736ZM169.846 239.072L173.014 239.072V242.432L169.846 242.432V239.072ZM163.63 245.864L179.086 245.864V253.136L175.894 253.136V248.36H163.63V245.864ZM199.388 230.912H202.436V244.832H199.388V230.912ZM196.7 236.384H200.228V238.976H196.7V236.384ZM194.804 231.32H197.78V244.088H194.804V231.32ZM183.38 233.168H194.18V235.64H183.38V233.168ZM188.804 236.336C189.748 236.336 190.58 236.504 191.3 236.84C192.02 237.176 192.58 237.632 192.98 238.208C193.396 238.784 193.604 239.456 193.604 240.224C193.604 240.992 193.396 241.672 192.98 242.264C192.58 242.84 192.02 243.296 191.3 243.632C190.58 243.952 189.748 244.112 188.804 244.112C187.892 244.112 187.068 243.952 186.332 243.632C185.612 243.296 185.044 242.84 184.628 242.264C184.212 241.672 184.004 240.992 184.004 240.224C184.004 239.456 184.212 238.784 184.628 238.208C185.044 237.632 185.612 237.176 186.332 236.84C187.068 236.504 187.892 236.336 188.804 236.336ZM188.804 238.64C188.228 238.64 187.756 238.776 187.388 239.048C187.036 239.32 186.86 239.712 186.86 240.224C186.86 240.736 187.036 241.136 187.388 241.424C187.756 241.696 188.228 241.832 188.804 241.832C189.38 241.832 189.852 241.696 190.22 241.424C190.588 241.136 190.772 240.736 190.772 240.224C190.772 239.712 190.588 239.32 190.22 239.048C189.868 238.776 189.396 238.64 188.804 238.64ZM187.22 231.128H190.364V234.872H187.22V231.128ZM194.9 245.048C197.284 245.048 199.156 245.4 200.516 246.104C201.876 246.808 202.556 247.808 202.556 249.104C202.556 250.384 201.876 251.376 200.516 252.08C199.156 252.784 197.284 253.136 194.9 253.136C192.516 253.136 190.644 252.784 189.284 252.08C187.94 251.376 187.268 250.384 187.268 249.104C187.268 247.808 187.94 246.808 189.284 246.104C190.644 245.4 192.516 245.048 194.9 245.048ZM194.924 247.424C193.436 247.424 192.316 247.56 191.564 247.832C190.812 248.104 190.436 248.528 190.436 249.104C190.436 249.664 190.812 250.08 191.564 250.352C192.316 250.624 193.436 250.76 194.924 250.76C196.38 250.76 197.476 250.624 198.212 250.352C198.964 250.08 199.34 249.664 199.34 249.104C199.34 248.528 198.964 248.104 198.212 247.832C197.476 247.56 196.38 247.424 194.924 247.424ZM210.57 232.616H213.138V235.832C213.138 237.208 213.018 238.552 212.778 239.864C212.538 241.16 212.162 242.368 211.65 243.488C211.154 244.608 210.522 245.608 209.754 246.488C208.986 247.352 208.082 248.04 207.042 248.552L205.122 245.984C206.066 245.552 206.874 244.976 207.546 244.256C208.234 243.536 208.802 242.72 209.25 241.808C209.698 240.896 210.026 239.936 210.234 238.928C210.458 237.904 210.57 236.872 210.57 235.832V232.616ZM211.194 232.616H213.762V235.832C213.762 236.84 213.858 237.832 214.05 238.808C214.258 239.784 214.57 240.712 214.986 241.592C215.418 242.456 215.954 243.232 216.594 243.92C217.234 244.608 218.002 245.176 218.898 245.624L216.954 248.168C215.962 247.656 215.098 246.984 214.362 246.152C213.642 245.304 213.05 244.336 212.586 243.248C212.122 242.144 211.77 240.968 211.53 239.72C211.306 238.456 211.194 237.16 211.194 235.832V232.616ZM219.762 230.912H222.978V253.136H219.762V230.912ZM222.282 239.456H226.194V242.096H222.282V239.456Z" fill="#2097F6"/>
<rect x="0.548667" y="368.549" width="298.903" height="115.903" rx="8.23001" fill="#E7F4FF"/>
<rect x="0.548667" y="368.549" width="298.903" height="115.903" rx="8.23001" stroke="#2097F6" stroke-width="1.09733"/>
<path d="M68.2602 417.424C69.3962 417.424 70.3962 417.752 71.2602 418.408C72.1402 419.048 72.8282 419.968 73.3242 421.168C73.8362 422.352 74.0922 423.752 74.0922 425.368C74.0922 427 73.8362 428.416 73.3242 429.616C72.8282 430.8 72.1402 431.72 71.2602 432.376C70.3962 433.016 69.3962 433.336 68.2602 433.336C67.1242 433.336 66.1162 433.016 65.2362 432.376C64.3562 431.72 63.6602 430.8 63.1482 429.616C62.6522 428.416 62.4042 427 62.4042 425.368C62.4042 423.752 62.6522 422.352 63.1482 421.168C63.6602 419.968 64.3562 419.048 65.2362 418.408C66.1162 417.752 67.1242 417.424 68.2602 417.424ZM68.2602 420.328C67.7162 420.328 67.2282 420.52 66.7962 420.904C66.3802 421.288 66.0522 421.856 65.8122 422.608C65.5882 423.344 65.4762 424.264 65.4762 425.368C65.4762 426.456 65.5882 427.384 65.8122 428.152C66.0522 428.904 66.3802 429.472 66.7962 429.856C67.2282 430.24 67.7162 430.432 68.2602 430.432C68.8042 430.432 69.2842 430.24 69.7002 429.856C70.1162 429.472 70.4362 428.904 70.6602 428.152C70.9002 427.384 71.0202 426.456 71.0202 425.368C71.0202 424.264 70.9002 423.344 70.6602 422.608C70.4362 421.856 70.1162 421.288 69.7002 420.904C69.2842 420.52 68.8042 420.328 68.2602 420.328ZM76.4922 415.912H79.7082V438.136H76.4922V415.912ZM79.0122 424.288H82.9242V426.904H79.0122V424.288ZM99.6263 415.864H102.818V438.16H99.6263V415.864ZM90.8423 417.424C91.9783 417.424 92.9863 417.752 93.8663 418.408C94.7463 419.048 95.4343 419.968 95.9303 421.168C96.4423 422.352 96.6983 423.752 96.6983 425.368C96.6983 427 96.4423 428.416 95.9303 429.616C95.4343 430.8 94.7463 431.72 93.8663 432.376C92.9863 433.016 91.9783 433.336 90.8423 433.336C89.7223 433.336 88.7223 433.016 87.8423 432.376C86.9623 431.72 86.2663 430.8 85.7543 429.616C85.2583 428.416 85.0103 427 85.0103 425.368C85.0103 423.752 85.2583 422.352 85.7543 421.168C86.2663 419.968 86.9623 419.048 87.8423 418.408C88.7223 417.752 89.7223 417.424 90.8423 417.424ZM90.8423 420.328C90.2983 420.328 89.8183 420.52 89.4023 420.904C88.9863 421.288 88.6583 421.856 88.4183 422.608C88.1943 423.344 88.0823 424.264 88.0823 425.368C88.0823 426.456 88.1943 427.384 88.4183 428.152C88.6583 428.904 88.9863 429.472 89.4023 429.856C89.8183 430.24 90.2983 430.432 90.8423 430.432C91.4023 430.432 91.8903 430.24 92.3063 429.856C92.7223 429.472 93.0423 428.904 93.2663 428.152C93.5063 427.384 93.6263 426.456 93.6263 425.368C93.6263 424.264 93.5063 423.344 93.2663 422.608C93.0423 421.856 92.7223 421.288 92.3063 420.904C91.8903 420.52 91.4023 420.328 90.8423 420.328ZM121.704 415.888H124.896V438.184H121.704V415.888ZM107.808 430.24H109.728C111.28 430.24 112.64 430.224 113.808 430.192C114.992 430.16 116.072 430.096 117.048 430C118.04 429.904 119.032 429.76 120.024 429.568L120.312 432.208C119.304 432.4 118.288 432.552 117.264 432.664C116.256 432.76 115.144 432.824 113.928 432.856C112.712 432.872 111.312 432.88 109.728 432.88H107.808V430.24ZM107.808 417.856H118.512V420.448H110.976V431.248H107.808V417.856ZM134.615 417.424C135.719 417.424 136.703 417.752 137.567 418.408C138.447 419.048 139.127 419.968 139.607 421.168C140.103 422.352 140.351 423.752 140.351 425.368C140.351 427 140.103 428.416 139.607 429.616C139.127 430.8 138.447 431.72 137.567 432.376C136.703 433.016 135.719 433.336 134.615 433.336C133.511 433.336 132.527 433.016 131.663 432.376C130.799 431.72 130.119 430.8 129.623 429.616C129.127 428.416 128.879 427 128.879 425.368C128.879 423.752 129.127 422.352 129.623 421.168C130.119 419.968 130.799 419.048 131.663 418.408C132.527 417.752 133.511 417.424 134.615 417.424ZM134.615 420.328C134.087 420.328 133.615 420.52 133.199 420.904C132.799 421.288 132.487 421.856 132.263 422.608C132.039 423.344 131.927 424.264 131.927 425.368C131.927 426.456 132.039 427.384 132.263 428.152C132.487 428.904 132.799 429.472 133.199 429.856C133.615 430.24 134.087 430.432 134.615 430.432C135.175 430.432 135.655 430.24 136.055 429.856C136.455 429.472 136.767 428.904 136.991 428.152C137.215 427.384 137.327 426.456 137.327 425.368C137.327 424.264 137.215 423.344 136.991 422.608C136.767 421.856 136.455 421.288 136.055 420.904C135.655 420.52 135.175 420.328 134.615 420.328ZM143.999 415.864H147.191V438.16H143.999V415.864ZM139.415 423.904H145.343V426.448H139.415V423.904ZM150.573 428.104H170.685V430.648H150.573V428.104ZM152.997 435.184H168.669V437.752H152.997V435.184ZM152.997 431.752H156.189V436.456H152.997V431.752ZM159.045 425.56H162.213V428.872H159.045V425.56ZM153.093 424.168H168.573V426.568H153.093V424.168ZM153.093 416.608H168.381V419.032H156.261V425.176H153.093V416.608ZM155.349 420.4H167.901V422.728H155.349V420.4ZM179.156 429.32V429.062C179.156 427.414 179.328 425.918 179.672 424.574C180.023 423.23 180.484 422.051 181.055 421.035C181.633 420.012 182.262 419.164 182.941 418.492C183.621 417.82 184.297 417.336 184.969 417.039L185.613 418.82C185.168 419.148 184.73 419.602 184.301 420.18C183.871 420.75 183.48 421.453 183.129 422.289C182.785 423.117 182.508 424.094 182.297 425.219C182.086 426.336 181.98 427.609 181.98 429.039V429.344C181.98 430.773 182.086 432.051 182.297 433.176C182.508 434.293 182.785 435.27 183.129 436.105C183.48 436.949 183.871 437.66 184.301 438.238C184.73 438.816 185.168 439.273 185.613 439.609L184.969 441.344C184.297 441.047 183.621 440.562 182.941 439.891C182.262 439.227 181.633 438.383 181.055 437.359C180.484 436.344 180.023 435.164 179.672 433.82C179.328 432.469 179.156 430.969 179.156 429.32ZM202.378 415.912H205.594V427.288H202.378V415.912ZM190.546 428.176H205.594V434.176H193.738V436.84H190.57V431.872H202.402V430.624H190.546V428.176ZM190.57 435.496H206.194V437.992H190.57V435.496ZM188.002 417.232H199.978V419.704H188.002V417.232ZM187.762 426.904L187.45 424.36C188.746 424.36 190.154 424.352 191.674 424.336C193.194 424.304 194.738 424.248 196.306 424.168C197.89 424.088 199.394 423.96 200.818 423.784L200.986 426.04C199.514 426.296 198.002 426.48 196.45 426.592C194.914 426.704 193.402 426.784 191.914 426.832C190.426 426.864 189.042 426.888 187.762 426.904ZM189.778 418.36H192.826V425.632H189.778V418.36ZM195.154 418.36H198.226V425.632H195.154V418.36ZM214.112 419.608H216.704V420.424C216.704 421.688 216.472 422.888 216.008 424.024C215.56 425.144 214.872 426.12 213.944 426.952C213.032 427.784 211.864 428.4 210.44 428.8L208.952 426.304C210.168 425.968 211.152 425.504 211.904 424.912C212.672 424.304 213.232 423.608 213.584 422.824C213.936 422.04 214.112 421.24 214.112 420.424V419.608ZM214.712 419.608H217.304V420.424C217.304 421.176 217.48 421.92 217.832 422.656C218.2 423.376 218.76 424.024 219.512 424.6C220.264 425.176 221.232 425.624 222.416 425.944L220.976 428.416C219.568 428.032 218.4 427.448 217.472 426.664C216.544 425.864 215.848 424.928 215.384 423.856C214.936 422.784 214.712 421.64 214.712 420.424V419.608ZM209.744 418.096H221.696V420.592H209.744V418.096ZM214.112 415.816H217.304V419.2H214.112V415.816ZM223.424 415.912H226.616V428.92H223.424V415.912ZM225.752 421.072H229.568V423.712H225.752V421.072ZM212.168 429.856H226.616V437.896H212.168V429.856ZM223.496 432.352H215.312V435.376H223.496V432.352ZM237.352 429.062V429.32C237.352 430.914 237.172 432.383 236.812 433.727C236.453 435.062 235.977 436.246 235.383 437.277C234.797 438.316 234.152 439.18 233.449 439.867C232.754 440.555 232.059 441.047 231.363 441.344L230.707 439.609C231.152 439.281 231.586 438.828 232.008 438.25C232.438 437.672 232.828 436.961 233.18 436.117C233.531 435.281 233.809 434.301 234.012 433.176C234.223 432.051 234.328 430.773 234.328 429.344V429.039C234.328 427.609 234.223 426.332 234.012 425.207C233.801 424.082 233.516 423.102 233.156 422.266C232.805 421.422 232.414 420.715 231.984 420.145C231.562 419.566 231.137 419.113 230.707 418.785L231.363 417.039C232.059 417.336 232.754 417.832 233.449 418.527C234.152 419.215 234.797 420.074 235.383 421.105C235.977 422.137 236.453 423.324 236.812 424.668C237.172 426.004 237.352 427.469 237.352 429.062Z" fill="#2097F6"/>
<rect x="0.548667" y="553.549" width="298.903" height="115.903" rx="8.23001" fill="#E7F4FF"/>
<rect x="0.548667" y="553.549" width="298.903" height="115.903" rx="8.23001" stroke="#2097F6" stroke-width="1.09733"/>
<path d="M119.376 606.264H123.6V608.856H119.376V606.264ZM122.712 600.912H125.928V614.112H122.712V600.912ZM118.392 614.592C119.96 614.592 121.312 614.76 122.448 615.096C123.584 615.432 124.456 615.92 125.064 616.56C125.688 617.2 126 617.968 126 618.864C126 620.24 125.32 621.296 123.96 622.032C122.6 622.784 120.744 623.16 118.392 623.16C116.04 623.16 114.184 622.784 112.824 622.032C111.464 621.296 110.784 620.24 110.784 618.864C110.784 617.968 111.088 617.2 111.696 616.56C112.32 615.92 113.2 615.432 114.336 615.096C115.472 614.76 116.824 614.592 118.392 614.592ZM118.392 617.016C117.432 617.016 116.624 617.088 115.968 617.232C115.312 617.36 114.808 617.56 114.456 617.832C114.12 618.104 113.952 618.448 113.952 618.864C113.952 619.28 114.12 619.632 114.456 619.92C114.808 620.192 115.312 620.4 115.968 620.544C116.624 620.672 117.432 620.736 118.392 620.736C119.352 620.736 120.16 620.672 120.816 620.544C121.472 620.4 121.968 620.192 122.304 619.92C122.64 619.632 122.808 619.28 122.808 618.864C122.808 618.448 122.64 618.104 122.304 617.832C121.968 617.56 121.472 617.36 120.816 617.232C120.16 617.088 119.352 617.016 118.392 617.016ZM112.464 603.12H115.056V604.536C115.056 605.944 114.832 607.288 114.384 608.568C113.936 609.848 113.248 610.976 112.32 611.952C111.408 612.912 110.24 613.632 108.816 614.112L107.208 611.592C108.12 611.288 108.904 610.88 109.56 610.368C110.232 609.856 110.776 609.288 111.192 608.664C111.624 608.024 111.944 607.352 112.152 606.648C112.36 605.944 112.464 605.24 112.464 604.536V603.12ZM113.136 603.12H115.68V604.512C115.68 605.392 115.856 606.256 116.208 607.104C116.56 607.952 117.104 608.72 117.84 609.408C118.592 610.096 119.552 610.64 120.72 611.04L119.16 613.536C117.784 613.072 116.648 612.392 115.752 611.496C114.872 610.584 114.216 609.528 113.784 608.328C113.352 607.112 113.136 605.84 113.136 604.512V603.12ZM108.072 602.256H120.024V604.776H108.072V602.256ZM144.718 600.888H147.91V623.112H144.718V600.888ZM138.166 603.192H141.31C141.31 604.888 141.142 606.512 140.806 608.064C140.486 609.6 139.942 611.048 139.174 612.408C138.422 613.768 137.382 615.032 136.054 616.2C134.742 617.352 133.102 618.408 131.134 619.368L129.454 616.848C131.598 615.808 133.302 614.664 134.566 613.416C135.846 612.152 136.766 610.728 137.326 609.144C137.886 607.544 138.166 605.752 138.166 603.768V603.192ZM130.654 603.192H139.654V605.736H130.654V603.192ZM160.22 608.376H163.916V610.968H160.22V608.376ZM155.492 602.832H157.916V606.552C157.916 607.816 157.828 609.056 157.652 610.272C157.476 611.488 157.188 612.632 156.788 613.704C156.404 614.776 155.892 615.744 155.252 616.608C154.628 617.456 153.868 618.152 152.972 618.696L151.052 616.296C151.884 615.8 152.58 615.192 153.14 614.472C153.7 613.752 154.156 612.96 154.508 612.096C154.86 611.232 155.108 610.336 155.252 609.408C155.412 608.464 155.492 607.512 155.492 606.552V602.832ZM156.188 602.832H158.564V606.408C158.564 607.32 158.628 608.224 158.756 609.12C158.9 610.016 159.124 610.872 159.428 611.688C159.732 612.504 160.132 613.256 160.628 613.944C161.14 614.632 161.78 615.224 162.548 615.72L160.796 618.216C159.932 617.672 159.196 616.984 158.588 616.152C157.996 615.304 157.524 614.352 157.172 613.296C156.82 612.24 156.564 611.128 156.404 609.96C156.26 608.792 156.188 607.608 156.188 606.408V602.832ZM167.516 600.888H170.564V623.112H167.516V600.888ZM163.004 601.248H165.98V622.128H163.004V601.248ZM185.274 603.792H189.714V606.336H185.274V603.792ZM185.274 608.064H189.714V610.608H185.274V608.064ZM178.65 602.16H181.218V604.728C181.218 606.264 181.002 607.704 180.57 609.048C180.138 610.392 179.474 611.568 178.578 612.576C177.682 613.568 176.53 614.328 175.122 614.856L173.418 612.384C174.346 612.048 175.138 611.616 175.794 611.088C176.45 610.56 176.986 609.96 177.402 609.288C177.818 608.6 178.13 607.872 178.338 607.104C178.546 606.32 178.65 605.528 178.65 604.728V602.16ZM179.298 602.16H181.866V604.728C181.866 605.48 181.962 606.232 182.154 606.984C182.346 607.72 182.642 608.416 183.042 609.072C183.442 609.728 183.954 610.32 184.578 610.848C185.202 611.376 185.954 611.8 186.834 612.12L185.082 614.616C183.77 614.088 182.682 613.328 181.818 612.336C180.97 611.344 180.338 610.192 179.922 608.88C179.506 607.568 179.298 606.184 179.298 604.728V602.16ZM188.946 600.912H192.162V617.352H188.946V600.912ZM177.45 620.184H192.642V622.752H177.45V620.184ZM177.45 615.864H180.642V621.816H177.45V615.864Z" fill="#2097F6"/>
<path d="M425 115L670 115V29.9467C670 17.8259 660.174 8 648.053 8L425 8V115Z" fill="#335CFE" fill-opacity="0.71"/>
<path d="M417 107L662 107V21.9467C662 9.82587 652.174 0 640.053 0L417 0V107Z" fill="#3383FE"/>
<path d="M449.037 63.1235H455.841V66.0125H449.037V63.1235ZM449.037 70.8995H455.841V73.7885H449.037V70.8995ZM444.69 59.7485C445.932 59.7485 447.039 60.1175 448.011 60.8555C449.001 61.5755 449.766 62.6105 450.306 63.9605C450.864 65.2925 451.143 66.8675 451.143 68.6855C451.143 70.5215 450.864 72.1145 450.306 73.4645C449.766 74.7965 449.001 75.8315 448.011 76.5695C447.039 77.2895 445.932 77.6495 444.69 77.6495C443.448 77.6495 442.341 77.2895 441.369 76.5695C440.397 75.8315 439.632 74.7965 439.074 73.4645C438.516 72.1145 438.237 70.5215 438.237 68.6855C438.237 66.8675 438.516 65.2925 439.074 63.9605C439.632 62.6105 440.397 61.5755 441.369 60.8555C442.341 60.1175 443.448 59.7485 444.69 59.7485ZM444.69 63.0155C444.096 63.0155 443.565 63.2315 443.097 63.6635C442.647 64.0955 442.287 64.7345 442.017 65.5805C441.765 66.4085 441.639 67.4435 441.639 68.6855C441.639 69.9095 441.765 70.9535 442.017 71.8175C442.287 72.6635 442.647 73.3025 443.097 73.7345C443.565 74.1665 444.096 74.3825 444.69 74.3825C445.32 74.3825 445.86 74.1665 446.31 73.7345C446.76 73.3025 447.111 72.6635 447.363 71.8175C447.615 70.9535 447.741 69.9095 447.741 68.6855C447.741 67.4435 447.615 66.4085 447.363 65.5805C447.111 64.7345 446.76 64.0955 446.31 63.6635C445.86 63.2315 445.32 63.0155 444.69 63.0155ZM455.247 57.9935H458.838V83.0765H455.247V57.9935ZM462.697 70.6565H485.323V73.4915H462.697V70.6565ZM465.451 58.5065H482.569V65.1755H469.042V67.9025H465.505V62.6375H479.032V61.2335H465.451V58.5065ZM465.505 66.5795H483.055V69.3065H465.505V66.5795ZM465.532 74.9765H482.704V82.7795H465.532V74.9765ZM479.167 77.7845H469.069V79.9445H479.167V77.7845ZM499.037 73.3025C500.783 73.3025 502.286 73.5005 503.546 73.8965C504.806 74.2745 505.778 74.8325 506.462 75.5705C507.146 76.2905 507.488 77.1635 507.488 78.1895C507.488 79.1975 507.146 80.0705 506.462 80.8085C505.778 81.5465 504.806 82.1045 503.546 82.4825C502.286 82.8785 500.783 83.0765 499.037 83.0765C497.309 83.0765 495.806 82.8785 494.528 82.4825C493.268 82.1045 492.287 81.5465 491.585 80.8085C490.901 80.0705 490.559 79.1975 490.559 78.1895C490.559 77.1635 490.901 76.2905 491.585 75.5705C492.287 74.8325 493.268 74.2745 494.528 73.8965C495.806 73.5005 497.309 73.3025 499.037 73.3025ZM499.037 76.1375C497.975 76.1375 497.084 76.2095 496.364 76.3535C495.644 76.4975 495.095 76.7225 494.717 77.0285C494.339 77.3165 494.15 77.7035 494.15 78.1895C494.15 78.6575 494.339 79.0535 494.717 79.3775C495.095 79.6835 495.644 79.9175 496.364 80.0795C497.084 80.2235 497.975 80.2955 499.037 80.2955C500.099 80.2955 500.99 80.2235 501.71 80.0795C502.448 79.9175 502.997 79.6835 503.357 79.3775C503.735 79.0535 503.924 78.6575 503.924 78.1895C503.924 77.7035 503.735 77.3165 503.357 77.0285C502.997 76.7225 502.448 76.4975 501.71 76.3535C500.99 76.2095 500.099 76.1375 499.037 76.1375ZM503.6 58.0475H507.191V72.7625H503.6V58.0475ZM506.219 63.8525H510.512V66.7955H506.219V63.8525ZM488.237 59.6135H491.801V62.7185H496.715V59.6135H500.252V71.3855H488.237V59.6135ZM491.801 65.4725V68.5775H496.715V65.4725H491.801ZM512.373 60.2075H527.061V63.0425H512.373V60.2075ZM519.717 63.8255C520.923 63.8255 521.985 64.0235 522.903 64.4195C523.839 64.8155 524.568 65.3555 525.09 66.0395C525.612 66.7235 525.873 67.5335 525.873 68.4695C525.873 69.3695 525.612 70.1705 525.09 70.8725C524.568 71.5565 523.839 72.0965 522.903 72.4925C521.985 72.8705 520.923 73.0595 519.717 73.0595C518.529 73.0595 517.467 72.8705 516.531 72.4925C515.595 72.0965 514.866 71.5565 514.344 70.8725C513.822 70.1705 513.561 69.3695 513.561 68.4695C513.561 67.5335 513.822 66.7235 514.344 66.0395C514.866 65.3555 515.595 64.8155 516.531 64.4195C517.467 64.0235 518.529 63.8255 519.717 63.8255ZM519.717 66.5525C518.925 66.5525 518.277 66.7145 517.773 67.0385C517.269 67.3445 517.017 67.8215 517.017 68.4695C517.017 69.0815 517.269 69.5495 517.773 69.8735C518.277 70.1975 518.925 70.3595 519.717 70.3595C520.527 70.3595 521.175 70.1975 521.661 69.8735C522.165 69.5495 522.417 69.0815 522.417 68.4695C522.417 67.8215 522.165 67.3445 521.661 67.0385C521.175 66.7145 520.527 66.5525 519.717 66.5525ZM528.438 58.0475H532.029V73.7075H528.438V58.0475ZM531.057 64.4735H535.35V67.4165H531.057V64.4735ZM515.343 74.7605H532.029V83.0495H528.438V77.5955H515.343V74.7605ZM517.935 57.8855H521.499V61.8545H517.935V57.8855Z" fill="white"/>
<rect x="436.752" y="19.752" width="25.5574" height="25.9733" rx="12.7787" fill="white"/>
<path d="M452.797 35.7916V37.2383H446.393V36.0038L449.421 32.7568C449.725 32.4182 449.965 32.1202 450.141 31.8631C450.317 31.6016 450.443 31.368 450.52 31.1622C450.602 30.9522 450.643 30.7529 450.643 30.5643C450.643 30.2814 450.595 30.0392 450.501 29.8377C450.407 29.632 450.268 29.4734 450.083 29.3619C449.903 29.2505 449.68 29.1947 449.415 29.1947C449.132 29.1947 448.887 29.2633 448.682 29.4005C448.48 29.5377 448.326 29.7284 448.219 29.9727C448.116 30.2171 448.064 30.4935 448.064 30.8022H446.206C446.206 30.2449 446.339 29.7348 446.605 29.2719C446.871 28.8047 447.246 28.4339 447.73 28.1596C448.214 27.8809 448.789 27.7416 449.453 27.7416C450.109 27.7416 450.662 27.8488 451.112 28.0631C451.566 28.2731 451.909 28.5775 452.141 28.9761C452.376 29.3705 452.494 29.842 452.494 30.3907C452.494 30.6993 452.445 31.0015 452.346 31.2972C452.248 31.5887 452.106 31.8802 451.922 32.1717C451.742 32.4589 451.523 32.7504 451.266 33.0461C451.009 33.3419 450.724 33.6484 450.411 33.9656L448.784 35.7916H452.797Z" fill="#3383FE"/>
<rect x="417.549" y="183.549" width="298.903" height="115.903" rx="8.23001" fill="#E7F4FF"/>
<rect x="417.549" y="183.549" width="298.903" height="115.903" rx="8.23001" stroke="#2097F6" stroke-width="1.09733"/>
<path d="M484.768 242.072H487.936V245.984H484.768V242.072ZM476.296 240.992H496.408V243.536H476.296V240.992ZM486.304 245.096C488.704 245.096 490.592 245.448 491.968 246.152C493.344 246.84 494.032 247.832 494.032 249.128C494.032 250.392 493.344 251.376 491.968 252.08C490.592 252.784 488.704 253.136 486.304 253.136C483.904 253.136 482.016 252.784 480.64 252.08C479.28 251.376 478.6 250.392 478.6 249.128C478.6 247.832 479.28 246.84 480.64 246.152C482.016 245.448 483.904 245.096 486.304 245.096ZM486.304 247.52C485.312 247.52 484.48 247.576 483.808 247.688C483.152 247.8 482.656 247.976 482.32 248.216C481.984 248.44 481.816 248.744 481.816 249.128C481.816 249.48 481.984 249.776 482.32 250.016C482.656 250.256 483.152 250.432 483.808 250.544C484.48 250.656 485.312 250.712 486.304 250.712C487.296 250.712 488.12 250.656 488.776 250.544C489.448 250.432 489.952 250.256 490.288 250.016C490.624 249.776 490.792 249.48 490.792 249.128C490.792 248.744 490.624 248.44 490.288 248.216C489.952 247.976 489.448 247.8 488.776 247.688C488.12 247.576 487.296 247.52 486.304 247.52ZM484.168 233H487V233.528C487 234.2 486.88 234.84 486.64 235.448C486.4 236.056 486.04 236.624 485.56 237.152C485.096 237.664 484.512 238.128 483.808 238.544C483.104 238.96 482.288 239.304 481.36 239.576C480.432 239.848 479.4 240.04 478.264 240.152L477.16 237.632C478.136 237.552 479 237.416 479.752 237.224C480.52 237.032 481.176 236.8 481.72 236.528C482.28 236.24 482.736 235.936 483.088 235.616C483.456 235.28 483.728 234.936 483.904 234.584C484.08 234.232 484.168 233.88 484.168 233.528V233ZM485.728 233H488.536V233.528C488.536 233.88 488.624 234.24 488.8 234.608C488.976 234.96 489.24 235.296 489.592 235.616C489.96 235.936 490.416 236.24 490.96 236.528C491.52 236.8 492.176 237.032 492.928 237.224C493.696 237.416 494.568 237.552 495.544 237.632L494.44 240.152C493.304 240.04 492.272 239.848 491.344 239.576C490.416 239.304 489.6 238.968 488.896 238.568C488.208 238.152 487.624 237.688 487.144 237.176C486.68 236.648 486.328 236.08 486.088 235.472C485.848 234.848 485.728 234.2 485.728 233.528V233ZM478.144 231.824H494.608V234.344H478.144V231.824ZM504.566 232.112C505.718 232.112 506.75 232.344 507.662 232.808C508.574 233.272 509.294 233.912 509.822 234.728C510.35 235.528 510.614 236.456 510.614 237.512C510.614 238.552 510.35 239.48 509.822 240.296C509.294 241.096 508.574 241.728 507.662 242.192C506.75 242.656 505.718 242.888 504.566 242.888C503.43 242.888 502.406 242.656 501.494 242.192C500.582 241.728 499.862 241.096 499.334 240.296C498.806 239.48 498.542 238.552 498.542 237.512C498.542 236.456 498.806 235.528 499.334 234.728C499.862 233.912 500.582 233.272 501.494 232.808C502.406 232.344 503.43 232.112 504.566 232.112ZM504.566 234.776C504.022 234.776 503.526 234.888 503.078 235.112C502.63 235.32 502.278 235.632 502.022 236.048C501.782 236.448 501.662 236.936 501.662 237.512C501.662 238.072 501.782 238.56 502.022 238.976C502.278 239.376 502.63 239.68 503.078 239.888C503.526 240.096 504.022 240.2 504.566 240.2C505.142 240.2 505.646 240.096 506.078 239.888C506.51 239.68 506.854 239.376 507.11 238.976C507.366 238.56 507.494 238.072 507.494 237.512C507.494 236.936 507.366 236.448 507.11 236.048C506.854 235.632 506.51 235.32 506.078 235.112C505.646 234.888 505.142 234.776 504.566 234.776ZM512.678 230.912H515.87V243.872H512.678V230.912ZM515.006 235.904H518.822V238.52H515.006V235.904ZM508.622 244.328C510.158 244.328 511.486 244.504 512.606 244.856C513.742 245.208 514.614 245.712 515.222 246.368C515.83 247.024 516.134 247.816 516.134 248.744C516.134 249.656 515.83 250.44 515.222 251.096C514.614 251.752 513.742 252.256 512.606 252.608C511.486 252.96 510.158 253.136 508.622 253.136C507.086 253.136 505.75 252.96 504.614 252.608C503.494 252.256 502.622 251.752 501.998 251.096C501.39 250.44 501.086 249.656 501.086 248.744C501.086 247.816 501.39 247.024 501.998 246.368C502.622 245.712 503.494 245.208 504.614 244.856C505.75 244.504 507.086 244.328 508.622 244.328ZM508.622 246.848C507.678 246.848 506.886 246.92 506.246 247.064C505.606 247.192 505.118 247.392 504.782 247.664C504.446 247.936 504.278 248.296 504.278 248.744C504.278 249.16 504.446 249.512 504.782 249.8C505.118 250.088 505.606 250.304 506.246 250.448C506.886 250.576 507.678 250.64 508.622 250.64C509.566 250.64 510.358 250.576 510.998 250.448C511.654 250.304 512.142 250.088 512.462 249.8C512.798 249.512 512.966 249.16 512.966 248.744C512.966 248.296 512.798 247.936 512.462 247.664C512.142 247.392 511.654 247.192 510.998 247.064C510.358 246.92 509.566 246.848 508.622 246.848ZM526.429 234.248H537.061V236.768H526.429V234.248ZM531.781 237.776C532.725 237.776 533.557 238 534.277 238.448C535.013 238.896 535.589 239.52 536.005 240.32C536.437 241.104 536.653 242.016 536.653 243.056C536.653 244.096 536.437 245.016 536.005 245.816C535.589 246.6 535.013 247.216 534.277 247.664C533.557 248.112 532.725 248.336 531.781 248.336C530.837 248.336 529.997 248.112 529.261 247.664C528.525 247.216 527.949 246.6 527.533 245.816C527.117 245.016 526.909 244.096 526.909 243.056C526.909 242.016 527.117 241.104 527.533 240.32C527.949 239.52 528.525 238.896 529.261 238.448C530.013 238 530.853 237.776 531.781 237.776ZM531.781 240.416C531.397 240.416 531.045 240.52 530.725 240.728C530.405 240.936 530.157 241.24 529.981 241.64C529.805 242.024 529.717 242.496 529.717 243.056C529.717 243.616 529.805 244.096 529.981 244.496C530.157 244.896 530.405 245.2 530.725 245.408C531.045 245.6 531.397 245.696 531.781 245.696C532.181 245.696 532.533 245.6 532.837 245.408C533.141 245.2 533.381 244.896 533.557 244.496C533.733 244.096 533.821 243.616 533.821 243.056C533.821 242.496 533.733 242.024 533.557 241.64C533.381 241.24 533.141 240.936 532.837 240.728C532.533 240.52 532.181 240.416 531.781 240.416ZM542.509 230.888H545.533V253.112H542.509V230.888ZM539.845 239.936H543.493V242.504H539.845V239.936ZM537.829 231.296H540.805V252.176H537.829V231.296ZM530.221 231.488H533.365V235.832H530.221V231.488ZM556.715 233.024H559.835C559.835 234.736 559.691 236.376 559.403 237.944C559.131 239.512 558.643 241.008 557.939 242.432C557.235 243.84 556.243 245.16 554.963 246.392C553.699 247.608 552.067 248.736 550.067 249.776L548.315 247.352C549.963 246.504 551.323 245.592 552.395 244.616C553.483 243.64 554.339 242.592 554.963 241.472C555.603 240.336 556.051 239.104 556.307 237.776C556.579 236.448 556.715 235 556.715 233.432V233.024ZM549.659 233.024H558.659V235.568H549.659V233.024ZM557.027 238.472V240.92L548.867 241.64L548.459 238.976L557.027 238.472ZM563.915 230.912H567.107V253.136H563.915V230.912ZM559.787 239.408H565.619V242H559.787V239.408ZM570.561 243.104L590.673 243.104V245.648L570.561 245.648V243.104ZM572.985 250.184L588.657 250.184V252.752L572.985 252.752V250.184ZM572.985 246.752H576.177V251.456H572.985V246.752ZM579.033 240.56H582.201V243.872H579.033V240.56ZM573.081 239.168L588.561 239.168V241.568L573.081 241.568V239.168ZM573.081 231.608H588.369V234.032H576.249V240.176L573.081 240.176V231.608ZM575.337 235.4H587.889V237.728H575.337V235.4ZM599.145 244.32V244.062C599.145 242.414 599.316 240.918 599.66 239.574C600.012 238.23 600.473 237.051 601.043 236.035C601.621 235.012 602.25 234.164 602.93 233.492C603.609 232.82 604.285 232.336 604.957 232.039L605.602 233.82C605.156 234.148 604.719 234.602 604.289 235.18C603.859 235.75 603.469 236.453 603.117 237.289C602.773 238.117 602.496 239.094 602.285 240.219C602.074 241.336 601.969 242.609 601.969 244.039V244.344C601.969 245.773 602.074 247.051 602.285 248.176C602.496 249.293 602.773 250.27 603.117 251.105C603.469 251.949 603.859 252.66 604.289 253.238C604.719 253.816 605.156 254.273 605.602 254.609L604.957 256.344C604.285 256.047 603.609 255.562 602.93 254.891C602.25 254.227 601.621 253.383 601.043 252.359C600.473 251.344 600.012 250.164 599.66 248.82C599.316 247.469 599.145 245.969 599.145 244.32ZM622.366 230.912H625.582V242.288H622.366V230.912ZM610.534 243.176H625.582V249.176H613.726V251.84H610.558V246.872H622.39V245.624H610.534V243.176ZM610.558 250.496H626.182V252.992H610.558V250.496ZM607.99 232.232H619.966V234.704H607.99V232.232ZM607.75 241.904L607.438 239.36C608.734 239.36 610.142 239.352 611.662 239.336C613.182 239.304 614.726 239.248 616.294 239.168C617.878 239.088 619.382 238.96 620.806 238.784L620.974 241.04C619.502 241.296 617.99 241.48 616.438 241.592C614.902 241.704 613.39 241.784 611.902 241.832C610.414 241.864 609.03 241.888 607.75 241.904ZM609.766 233.36H612.814V240.632H609.766V233.36ZM615.142 233.36H618.214V240.632H615.142V233.36ZM634.1 234.608H636.692V235.424C636.692 236.688 636.46 237.888 635.996 239.024C635.548 240.144 634.86 241.12 633.932 241.952C633.02 242.784 631.852 243.4 630.428 243.8L628.94 241.304C630.156 240.968 631.14 240.504 631.892 239.912C632.66 239.304 633.22 238.608 633.572 237.824C633.924 237.04 634.1 236.24 634.1 235.424V234.608ZM634.7 234.608H637.292V235.424C637.292 236.176 637.468 236.92 637.82 237.656C638.188 238.376 638.748 239.024 639.5 239.6C640.252 240.176 641.22 240.624 642.404 240.944L640.964 243.416C639.556 243.032 638.388 242.448 637.46 241.664C636.532 240.864 635.836 239.928 635.372 238.856C634.924 237.784 634.7 236.64 634.7 235.424V234.608ZM629.732 233.096H641.684V235.592H629.732V233.096ZM634.1 230.816H637.292V234.2H634.1V230.816ZM643.412 230.912H646.604V243.92H643.412V230.912ZM645.74 236.072H649.556V238.712H645.74V236.072ZM632.156 244.856H646.604V252.896H632.156V244.856ZM643.484 247.352H635.3V250.376H643.484V247.352ZM657.34 244.062V244.32C657.34 245.914 657.16 247.383 656.801 248.727C656.441 250.062 655.965 251.246 655.371 252.277C654.785 253.316 654.141 254.18 653.438 254.867C652.742 255.555 652.047 256.047 651.352 256.344L650.695 254.609C651.141 254.281 651.574 253.828 651.996 253.25C652.426 252.672 652.816 251.961 653.168 251.117C653.52 250.281 653.797 249.301 654 248.176C654.211 247.051 654.316 245.773 654.316 244.344V244.039C654.316 242.609 654.211 241.332 654 240.207C653.789 239.082 653.504 238.102 653.145 237.266C652.793 236.422 652.402 235.715 651.973 235.145C651.551 234.566 651.125 234.113 650.695 233.785L651.352 232.039C652.047 232.336 652.742 232.832 653.438 233.527C654.141 234.215 654.785 235.074 655.371 236.105C655.965 237.137 656.441 238.324 656.801 239.668C657.16 241.004 657.34 242.469 657.34 244.062Z" fill="#2097F6"/>
<rect x="417.549" y="368.549" width="298.903" height="115.903" rx="8.23001" fill="#E7F4FF"/>
<rect x="417.549" y="368.549" width="298.903" height="115.903" rx="8.23001" stroke="#2097F6" stroke-width="1.09733"/>
<path d="M552.352 418.938H555.328L559.711 431.465L564.094 418.938H567.07L560.906 436H558.516L552.352 418.938ZM550.746 418.938H553.711L554.25 431.148V436H550.746V418.938ZM565.711 418.938H568.688V436H565.172V431.148L565.711 418.938ZM579.047 418.938V436H575.543V418.938H579.047ZM584.297 418.938V421.691H570.375V418.938H584.297Z" fill="#2097F6"/>
<path d="M842 115L1087 115V29.9467C1087 17.8259 1077.17 8 1065.05 8L842 8V115Z" fill="#335CFE" fill-opacity="0.71"/>
<path d="M834 107L1079 107V21.9467C1079 9.82587 1069.17 0 1057.05 0L834 0V107Z" fill="#3383FE"/>
<path d="M868.267 77.4429V80.6465H855.004V77.9307L861.201 71.3652C861.781 70.6973 862.242 70.1084 862.585 69.5986C862.937 69.0889 863.191 68.6274 863.35 68.2144C863.508 67.7925 863.587 67.4058 863.587 67.0542C863.587 66.4829 863.495 65.9995 863.31 65.604C863.134 65.2085 862.875 64.9053 862.532 64.6943C862.189 64.4834 861.772 64.3779 861.28 64.3779C860.752 64.3779 860.3 64.5142 859.922 64.7866C859.544 65.0591 859.254 65.437 859.052 65.9204C858.85 66.395 858.749 66.9355 858.749 67.542H854.609C854.609 66.373 854.89 65.3096 855.453 64.3516C856.015 63.3848 856.802 62.6157 857.812 62.0444C858.823 61.4644 860.005 61.1743 861.359 61.1743C862.748 61.1743 863.912 61.394 864.853 61.8335C865.793 62.2729 866.505 62.9014 866.988 63.7188C867.472 64.5361 867.713 65.5205 867.713 66.6719C867.713 67.3223 867.608 67.9507 867.397 68.5571C867.195 69.1636 866.9 69.7656 866.514 70.3633C866.127 70.9609 865.661 71.5718 865.116 72.1958C864.571 72.811 863.956 73.4614 863.271 74.147L860.37 77.4429H868.267ZM870.442 60.2075H885.13V63.0425H870.442V60.2075ZM877.786 63.8255C878.992 63.8255 880.054 64.0235 880.972 64.4195C881.908 64.8155 882.637 65.3555 883.159 66.0395C883.681 66.7235 883.942 67.5335 883.942 68.4695C883.942 69.3695 883.681 70.1705 883.159 70.8725C882.637 71.5565 881.908 72.0965 880.972 72.4925C880.054 72.8705 878.992 73.0595 877.786 73.0595C876.598 73.0595 875.536 72.8705 874.6 72.4925C873.664 72.0965 872.935 71.5565 872.413 70.8725C871.891 70.1705 871.63 69.3695 871.63 68.4695C871.63 67.5335 871.891 66.7235 872.413 66.0395C872.935 65.3555 873.664 64.8155 874.6 64.4195C875.536 64.0235 876.598 63.8255 877.786 63.8255ZM877.786 66.5525C876.994 66.5525 876.346 66.7145 875.842 67.0385C875.338 67.3445 875.086 67.8215 875.086 68.4695C875.086 69.0815 875.338 69.5495 875.842 69.8735C876.346 70.1975 876.994 70.3595 877.786 70.3595C878.596 70.3595 879.244 70.1975 879.73 69.8735C880.234 69.5495 880.486 69.0815 880.486 68.4695C880.486 67.8215 880.234 67.3445 879.73 67.0385C879.244 66.7145 878.596 66.5525 877.786 66.5525ZM886.507 58.0475H890.098V73.7075H886.507V58.0475ZM889.126 64.4735H893.419V67.4165H889.126V64.4735ZM873.412 74.7605H890.098V83.0495H886.507V77.5955H873.412V74.7605ZM876.004 57.8855H879.568V61.8545H876.004V57.8855ZM912.506 58.0205H916.097V83.0225H912.506V58.0205ZM905.135 60.6125H908.672C908.672 62.5205 908.483 64.3475 908.105 66.0935C907.745 67.8215 907.133 69.4505 906.269 70.9805C905.423 72.5105 904.253 73.9325 902.759 75.2465C901.283 76.5425 899.438 77.7305 897.224 78.8105L895.334 75.9755C897.746 74.8055 899.663 73.5185 901.085 72.1145C902.525 70.6925 903.56 69.0905 904.19 67.3085C904.82 65.5085 905.135 63.4925 905.135 61.2605V60.6125ZM896.684 60.6125H906.809V63.4745H896.684V60.6125Z" fill="white"/>
<rect x="853.752" y="19.752" width="25.5574" height="25.9733" rx="12.7787" fill="white"/>
<path d="M865.289 31.7538H866.28C866.597 31.7538 866.858 31.7002 867.064 31.593C867.27 31.4816 867.422 31.3272 867.52 31.1301C867.623 30.9286 867.675 30.695 867.675 30.4292C867.675 30.1892 867.628 29.977 867.533 29.7927C867.443 29.6041 867.304 29.4584 867.115 29.3555C866.927 29.2483 866.689 29.1947 866.402 29.1947C866.174 29.1947 865.964 29.2397 865.772 29.3298C865.579 29.4198 865.424 29.5462 865.309 29.7091C865.193 29.872 865.135 30.0692 865.135 30.3006H863.277C863.277 29.7863 863.414 29.3383 863.688 28.9568C863.967 28.5753 864.34 28.2774 864.807 28.0631C865.274 27.8488 865.789 27.7416 866.35 27.7416C866.985 27.7416 867.54 27.8445 868.016 28.0502C868.491 28.2517 868.862 28.5496 869.128 28.944C869.394 29.3383 869.527 29.827 869.527 30.4099C869.527 30.7057 869.458 30.9929 869.321 31.2715C869.184 31.5459 868.986 31.7945 868.729 32.0174C868.476 32.236 868.168 32.4117 867.803 32.5446C867.439 32.6732 867.03 32.7375 866.575 32.7375H865.289V31.7538ZM865.289 33.1619V32.2038H866.575C867.085 32.2038 867.533 32.2617 867.919 32.3774C868.305 32.4932 868.628 32.6603 868.89 32.8789C869.151 33.0933 869.349 33.3483 869.482 33.6441C869.614 33.9356 869.681 34.2592 869.681 34.615C869.681 35.0522 869.597 35.4423 869.43 35.7852C869.263 36.1238 869.027 36.411 868.723 36.6467C868.423 36.8825 868.071 37.0625 867.668 37.1868C867.265 37.3069 866.826 37.3669 866.35 37.3669C865.956 37.3669 865.568 37.3133 865.186 37.2061C864.809 37.0947 864.466 36.9297 864.158 36.711C863.853 36.4882 863.609 36.2095 863.425 35.8752C863.245 35.5366 863.155 35.1358 863.155 34.6728H865.013C865.013 34.9129 865.073 35.1272 865.193 35.3158C865.313 35.5044 865.478 35.6523 865.688 35.7595C865.902 35.8666 866.14 35.9202 866.402 35.9202C866.697 35.9202 866.95 35.8666 867.16 35.7595C867.375 35.648 867.538 35.4937 867.649 35.2965C867.765 35.095 867.823 34.8614 867.823 34.5957C867.823 34.2528 867.76 33.9784 867.636 33.7727C867.512 33.5626 867.334 33.4083 867.103 33.3097C866.871 33.2111 866.597 33.1619 866.28 33.1619H865.289Z" fill="#3383FE"/>
<rect x="834.549" y="183.549" width="298.903" height="115.903" rx="8.23001" fill="#E7F4FF"/>
<rect x="834.549" y="183.549" width="298.903" height="115.903" rx="8.23001" stroke="#2097F6" stroke-width="1.09733"/>
<path d="M937.332 233.984H943.884V236.552H937.332V233.984ZM937.332 239.384H943.884V241.952H937.332V239.384ZM942.684 230.912H945.9V247.16H942.684V230.912ZM931.212 250.184H946.404V252.752H931.212V250.184ZM931.212 245.576H934.404V251.528H931.212V245.576ZM933.42 232.232C934.524 232.232 935.516 232.48 936.396 232.976C937.292 233.456 937.996 234.128 938.508 234.992C939.036 235.856 939.3 236.848 939.3 237.968C939.3 239.072 939.036 240.064 938.508 240.944C937.996 241.808 937.292 242.488 936.396 242.984C935.516 243.48 934.524 243.728 933.42 243.728C932.332 243.728 931.34 243.48 930.444 242.984C929.564 242.488 928.86 241.808 928.332 240.944C927.82 240.064 927.564 239.072 927.564 237.968C927.564 236.848 927.82 235.856 928.332 234.992C928.86 234.128 929.564 233.456 930.444 232.976C931.34 232.48 932.332 232.232 933.42 232.232ZM933.42 235.016C932.892 235.016 932.412 235.136 931.98 235.376C931.548 235.616 931.204 235.96 930.948 236.408C930.708 236.84 930.588 237.36 930.588 237.968C930.588 238.592 930.708 239.128 930.948 239.576C931.204 240.008 931.548 240.344 931.98 240.584C932.412 240.808 932.892 240.92 933.42 240.92C933.964 240.92 934.444 240.808 934.86 240.584C935.292 240.344 935.628 240.008 935.868 239.576C936.124 239.128 936.252 238.592 936.252 237.968C936.252 237.36 936.124 236.84 935.868 236.408C935.628 235.96 935.292 235.616 934.86 235.376C934.444 235.136 933.964 235.016 933.42 235.016ZM963.659 230.912H966.851V243.92H963.659V230.912ZM965.603 236.24H969.803V238.856H965.603V236.24ZM952.403 244.784H955.571V246.44H963.707V244.784H966.851V252.896H952.403V244.784ZM955.571 248.84V250.4H963.707V248.84H955.571ZM949.379 232.832H962.435V235.352H949.379V232.832ZM955.907 235.928C956.995 235.928 957.947 236.096 958.763 236.432C959.579 236.752 960.219 237.208 960.683 237.8C961.147 238.392 961.379 239.08 961.379 239.864C961.379 240.648 961.147 241.336 960.683 241.928C960.219 242.52 959.579 242.984 958.763 243.32C957.947 243.64 956.995 243.8 955.907 243.8C954.835 243.8 953.883 243.64 953.051 243.32C952.235 242.984 951.595 242.52 951.131 241.928C950.667 241.336 950.435 240.648 950.435 239.864C950.435 239.08 950.667 238.392 951.131 237.8C951.595 237.208 952.235 236.752 953.051 236.432C953.883 236.096 954.835 235.928 955.907 235.928ZM955.907 238.256C955.203 238.256 954.627 238.4 954.179 238.688C953.731 238.96 953.507 239.352 953.507 239.864C953.507 240.392 953.731 240.8 954.179 241.088C954.627 241.36 955.203 241.496 955.907 241.496C956.627 241.496 957.203 241.36 957.635 241.088C958.083 240.8 958.307 240.392 958.307 239.864C958.307 239.352 958.083 238.96 957.635 238.688C957.203 238.4 956.627 238.256 955.907 238.256ZM954.323 230.72H957.491V234.224H954.323V230.72ZM977.409 234.248H988.041V236.768H977.409V234.248ZM982.761 237.776C983.705 237.776 984.537 238 985.257 238.448C985.993 238.896 986.569 239.52 986.985 240.32C987.417 241.104 987.633 242.016 987.633 243.056C987.633 244.096 987.417 245.016 986.985 245.816C986.569 246.6 985.993 247.216 985.257 247.664C984.537 248.112 983.705 248.336 982.761 248.336C981.817 248.336 980.977 248.112 980.241 247.664C979.505 247.216 978.929 246.6 978.513 245.816C978.097 245.016 977.889 244.096 977.889 243.056C977.889 242.016 978.097 241.104 978.513 240.32C978.929 239.52 979.505 238.896 980.241 238.448C980.993 238 981.833 237.776 982.761 237.776ZM982.761 240.416C982.377 240.416 982.025 240.52 981.705 240.728C981.385 240.936 981.137 241.24 980.961 241.64C980.785 242.024 980.697 242.496 980.697 243.056C980.697 243.616 980.785 244.096 980.961 244.496C981.137 244.896 981.385 245.2 981.705 245.408C982.025 245.6 982.377 245.696 982.761 245.696C983.161 245.696 983.513 245.6 983.817 245.408C984.121 245.2 984.361 244.896 984.537 244.496C984.713 244.096 984.801 243.616 984.801 243.056C984.801 242.496 984.713 242.024 984.537 241.64C984.361 241.24 984.121 240.936 983.817 240.728C983.513 240.52 983.161 240.416 982.761 240.416ZM993.489 230.888H996.513V253.112H993.489V230.888ZM990.825 239.936H994.473V242.504H990.825V239.936ZM988.809 231.296H991.785V252.176H988.809V231.296ZM981.201 231.488H984.345V235.832H981.201V231.488ZM1007.7 233.024H1010.82C1010.82 234.736 1010.67 236.376 1010.38 237.944C1010.11 239.512 1009.62 241.008 1008.92 242.432C1008.22 243.84 1007.22 245.16 1005.94 246.392C1004.68 247.608 1003.05 248.736 1001.05 249.776L999.295 247.352C1000.94 246.504 1002.3 245.592 1003.38 244.616C1004.46 243.64 1005.32 242.592 1005.94 241.472C1006.58 240.336 1007.03 239.104 1007.29 237.776C1007.56 236.448 1007.7 235 1007.7 233.432V233.024ZM1000.64 233.024H1009.64V235.568H1000.64V233.024ZM1008.01 238.472V240.92L999.847 241.64L999.439 238.976L1008.01 238.472ZM1014.9 230.912H1018.09V253.136H1014.9V230.912ZM1010.77 239.408H1016.6V242H1010.77V239.408ZM1021.54 243.104L1041.65 243.104V245.648L1021.54 245.648V243.104ZM1023.97 250.184L1039.64 250.184V252.752L1023.97 252.752V250.184ZM1023.97 246.752H1027.16V251.456H1023.97V246.752ZM1030.01 240.56H1033.18V243.872H1030.01V240.56ZM1024.06 239.168L1039.54 239.168V241.568L1024.06 241.568V239.168ZM1024.06 231.608H1039.35V234.032H1027.23V240.176L1024.06 240.176V231.608ZM1026.32 235.4H1038.87V237.728H1026.32V235.4Z" fill="#2097F6"/>
<rect x="834.549" y="368.549" width="298.903" height="115.903" rx="8.23001" fill="#E7F4FF"/>
<rect x="834.549" y="368.549" width="298.903" height="115.903" rx="8.23001" stroke="#2097F6" stroke-width="1.09733"/>
<path d="M926.293 418.984H932.845V421.552H926.293V418.984ZM926.293 424.384H932.845V426.952H926.293V424.384ZM931.645 415.912H934.861V432.16H931.645V415.912ZM920.173 435.184H935.365V437.752H920.173V435.184ZM920.173 430.576H923.365V436.528H920.173V430.576ZM922.381 417.232C923.485 417.232 924.477 417.48 925.357 417.976C926.253 418.456 926.957 419.128 927.469 419.992C927.997 420.856 928.261 421.848 928.261 422.968C928.261 424.072 927.997 425.064 927.469 425.944C926.957 426.808 926.253 427.488 925.357 427.984C924.477 428.48 923.485 428.728 922.381 428.728C921.293 428.728 920.301 428.48 919.405 427.984C918.525 427.488 917.821 426.808 917.293 425.944C916.781 425.064 916.525 424.072 916.525 422.968C916.525 421.848 916.781 420.856 917.293 419.992C917.821 419.128 918.525 418.456 919.405 417.976C920.301 417.48 921.293 417.232 922.381 417.232ZM922.381 420.016C921.853 420.016 921.373 420.136 920.941 420.376C920.509 420.616 920.165 420.96 919.909 421.408C919.669 421.84 919.549 422.36 919.549 422.968C919.549 423.592 919.669 424.128 919.909 424.576C920.165 425.008 920.509 425.344 920.941 425.584C921.373 425.808 921.853 425.92 922.381 425.92C922.925 425.92 923.405 425.808 923.821 425.584C924.253 425.344 924.589 425.008 924.829 424.576C925.085 424.128 925.213 423.592 925.213 422.968C925.213 422.36 925.085 421.84 924.829 421.408C924.589 420.96 924.253 420.616 923.821 420.376C923.405 420.136 922.925 420.016 922.381 420.016ZM952.619 415.912H955.811V428.92H952.619V415.912ZM954.563 421.24H958.763V423.856H954.563V421.24ZM941.363 429.784H944.531V431.44H952.667V429.784H955.811V437.896H941.363V429.784ZM944.531 433.84V435.4H952.667V433.84H944.531ZM938.339 417.832H951.395V420.352H938.339V417.832ZM944.867 420.928C945.955 420.928 946.907 421.096 947.723 421.432C948.539 421.752 949.179 422.208 949.643 422.8C950.107 423.392 950.339 424.08 950.339 424.864C950.339 425.648 950.107 426.336 949.643 426.928C949.179 427.52 948.539 427.984 947.723 428.32C946.907 428.64 945.955 428.8 944.867 428.8C943.795 428.8 942.843 428.64 942.011 428.32C941.195 427.984 940.555 427.52 940.091 426.928C939.627 426.336 939.395 425.648 939.395 424.864C939.395 424.08 939.627 423.392 940.091 422.8C940.555 422.208 941.195 421.752 942.011 421.432C942.843 421.096 943.795 420.928 944.867 420.928ZM944.867 423.256C944.163 423.256 943.587 423.4 943.139 423.688C942.691 423.96 942.467 424.352 942.467 424.864C942.467 425.392 942.691 425.8 943.139 426.088C943.587 426.36 944.163 426.496 944.867 426.496C945.587 426.496 946.163 426.36 946.595 426.088C947.043 425.8 947.267 425.392 947.267 424.864C947.267 424.352 947.043 423.96 946.595 423.688C946.163 423.4 945.587 423.256 944.867 423.256ZM943.283 415.72H946.451V419.224H943.283V415.72ZM977.89 422.632H982.162V425.2H977.89V422.632ZM974.746 417.568H978.034C978.034 419.664 977.714 421.528 977.074 423.16C976.434 424.792 975.378 426.216 973.906 427.432C972.434 428.632 970.45 429.632 967.954 430.432L966.706 427.96C968.274 427.464 969.578 426.904 970.618 426.28C971.658 425.656 972.474 424.968 973.066 424.216C973.674 423.448 974.106 422.624 974.362 421.744C974.618 420.848 974.746 419.888 974.746 418.864V417.568ZM967.882 417.568H976.81V420.136H967.882V417.568ZM975.106 421.912V424.096L967.186 424.672L966.754 422.2L975.106 421.912ZM981.778 415.888H984.994V432.304H981.778V415.888ZM970.45 435.184H985.57V437.752H970.45V435.184ZM970.45 430.72H973.666V436.864H970.45V430.72ZM988.952 417.832H1001.26V420.4H988.952V417.832ZM988.688 433.096L988.376 430.504C989.656 430.504 991.056 430.496 992.576 430.48C994.096 430.448 995.648 430.392 997.232 430.312C998.816 430.216 1000.33 430.08 1001.77 429.904L1001.98 432.232C1000.5 432.472 998.968 432.664 997.4 432.808C995.848 432.936 994.32 433.016 992.816 433.048C991.328 433.08 989.952 433.096 988.688 433.096ZM990.8 419.944H993.896V431.152H990.8V419.944ZM996.08 419.944H999.176V431.152H996.08V419.944ZM1003.93 415.912H1007.12V438.136H1003.93V415.912ZM1000.62 423.976H1006.28V426.544H1000.62V423.976ZM1011.39 426.856H1013.19C1014.58 426.856 1015.82 426.848 1016.91 426.832C1018 426.8 1019.02 426.744 1019.98 426.664C1020.94 426.584 1021.91 426.472 1022.89 426.328L1023.15 428.848C1022.13 429.024 1021.12 429.152 1020.13 429.232C1019.15 429.296 1018.1 429.344 1016.98 429.376C1015.88 429.408 1014.61 429.424 1013.19 429.424H1011.39V426.856ZM1011.34 417.352H1021.37V424.48H1014.56V428.536H1011.39V422.104H1018.23V419.896H1011.34V417.352ZM1025.93 415.912H1029.15V432.256H1025.93V415.912ZM1014.34 435.184H1029.68V437.752H1014.34V435.184ZM1014.34 430.984H1017.56V436.024H1014.34V430.984ZM1022.45 421.24H1026.58V423.928H1022.45V421.24ZM1040.88 417.184H1043.64V418.792C1043.64 419.752 1043.51 420.688 1043.24 421.6C1042.98 422.496 1042.6 423.344 1042.08 424.144C1041.57 424.944 1040.94 425.672 1040.19 426.328C1039.45 426.968 1038.6 427.52 1037.64 427.984C1036.68 428.448 1035.63 428.792 1034.48 429.016L1033.11 426.352C1034.1 426.176 1035 425.912 1035.82 425.56C1036.65 425.192 1037.38 424.752 1038 424.24C1038.63 423.728 1039.16 423.176 1039.59 422.584C1040.02 421.976 1040.34 421.352 1040.55 420.712C1040.77 420.056 1040.88 419.416 1040.88 418.792V417.184ZM1041.51 417.184H1044.29V418.792C1044.29 419.432 1044.4 420.08 1044.6 420.736C1044.83 421.392 1045.15 422.024 1045.56 422.632C1046 423.224 1046.52 423.768 1047.15 424.264C1047.77 424.76 1048.49 425.192 1049.31 425.56C1050.12 425.912 1051.04 426.176 1052.07 426.352L1050.7 429.016C1049.55 428.792 1048.49 428.448 1047.53 427.984C1046.57 427.52 1045.72 426.968 1044.96 426.328C1044.23 425.688 1043.6 424.968 1043.07 424.168C1042.56 423.368 1042.16 422.512 1041.89 421.6C1041.64 420.688 1041.51 419.752 1041.51 418.792V417.184ZM1032.63 432.808H1052.76V435.424H1032.63V432.808Z" fill="#2097F6"/>
<path d="M1259 115L1504 115V29.9467C1504 17.8259 1494.17 8 1482.05 8L1259 8V115Z" fill="#335CFE" fill-opacity="0.71"/>
<path d="M1251 107L1496 107V21.9467C1496 9.82587 1486.17 0 1474.05 0L1251 0V107Z" fill="#3383FE"/>
<path d="M1281.01 60.6125H1284.55C1284.55 62.4845 1284.36 64.2845 1283.98 66.0125C1283.6 67.7405 1282.98 69.3785 1282.12 70.9265C1281.27 72.4565 1280.14 73.8785 1278.72 75.1925C1277.29 76.5065 1275.53 77.6855 1273.42 78.7295L1271.56 75.9485C1273.78 74.7965 1275.58 73.5185 1276.96 72.1145C1278.37 70.6925 1279.39 69.0905 1280.04 67.3085C1280.69 65.5085 1281.01 63.4925 1281.01 61.2605V60.6125ZM1272.75 60.6125H1282.9V63.4745H1272.75V60.6125ZM1289.17 58.0205H1292.76V83.0225H1289.17V58.0205ZM1283.55 64.4195H1289.71V67.2815H1283.55V64.4195ZM1283.28 71.2505H1289.44V74.1395H1283.28V71.2505ZM1306.17 69.9275H1309.74V73.4375H1306.17V69.9275ZM1308.01 58.2635C1310.85 58.2635 1313.07 58.6325 1314.65 59.3705C1316.25 60.0905 1317.05 61.1435 1317.05 62.5295C1317.05 63.8975 1316.25 64.9505 1314.65 65.6885C1313.07 66.4265 1310.85 66.7955 1308.01 66.7955C1305.15 66.7955 1302.92 66.4265 1301.31 65.6885C1299.73 64.9505 1298.94 63.8975 1298.94 62.5295C1298.94 61.1435 1299.73 60.0905 1301.31 59.3705C1302.92 58.6325 1305.15 58.2635 1308.01 58.2635ZM1307.98 60.8825C1306.79 60.8825 1305.8 60.9455 1305.01 61.0715C1304.22 61.1795 1303.63 61.3595 1303.23 61.6115C1302.85 61.8455 1302.66 62.1515 1302.66 62.5295C1302.66 62.9075 1302.85 63.2225 1303.23 63.4745C1303.63 63.7085 1304.22 63.8795 1305.01 63.9875C1305.8 64.0955 1306.79 64.1495 1307.98 64.1495C1309.19 64.1495 1310.19 64.0955 1310.98 63.9875C1311.77 63.8795 1312.36 63.7085 1312.73 63.4745C1313.11 63.2225 1313.3 62.9075 1313.3 62.5295C1313.3 62.1515 1313.11 61.8455 1312.73 61.6115C1312.36 61.3595 1311.77 61.1795 1310.98 61.0715C1310.19 60.9455 1309.19 60.8825 1307.98 60.8825ZM1296.67 67.8485H1319.3V70.6835H1296.67V67.8485ZM1299.26 72.3305H1316.54V78.7295H1302.85V80.9435H1299.29V76.2455H1313V74.9765H1299.26V72.3305ZM1299.29 80.1605H1317.22V82.8875H1299.29V80.1605ZM1333.04 73.3025C1334.78 73.3025 1336.29 73.5005 1337.55 73.8965C1338.81 74.2745 1339.78 74.8325 1340.46 75.5705C1341.15 76.2905 1341.49 77.1635 1341.49 78.1895C1341.49 79.1975 1341.15 80.0705 1340.46 80.8085C1339.78 81.5465 1338.81 82.1045 1337.55 82.4825C1336.29 82.8785 1334.78 83.0765 1333.04 83.0765C1331.31 83.0765 1329.81 82.8785 1328.53 82.4825C1327.27 82.1045 1326.29 81.5465 1325.58 80.8085C1324.9 80.0705 1324.56 79.1975 1324.56 78.1895C1324.56 77.1635 1324.9 76.2905 1325.58 75.5705C1326.29 74.8325 1327.27 74.2745 1328.53 73.8965C1329.81 73.5005 1331.31 73.3025 1333.04 73.3025ZM1333.04 76.1375C1331.97 76.1375 1331.08 76.2095 1330.36 76.3535C1329.64 76.4975 1329.09 76.7225 1328.72 77.0285C1328.34 77.3165 1328.15 77.7035 1328.15 78.1895C1328.15 78.6575 1328.34 79.0535 1328.72 79.3775C1329.09 79.6835 1329.64 79.9175 1330.36 80.0795C1331.08 80.2235 1331.97 80.2955 1333.04 80.2955C1334.1 80.2955 1334.99 80.2235 1335.71 80.0795C1336.45 79.9175 1337 79.6835 1337.36 79.3775C1337.73 79.0535 1337.92 78.6575 1337.92 78.1895C1337.92 77.7035 1337.73 77.3165 1337.36 77.0285C1337 76.7225 1336.45 76.4975 1335.71 76.3535C1334.99 76.2095 1334.1 76.1375 1333.04 76.1375ZM1337.6 58.0475H1341.19V72.7625H1337.6V58.0475ZM1340.22 63.8525H1344.51V66.7955H1340.22V63.8525ZM1322.24 59.6135H1325.8V62.7185H1330.71V59.6135H1334.25V71.3855H1322.24V59.6135ZM1325.8 65.4725V68.5775H1330.71V65.4725H1325.8ZM1346.37 60.2075H1361.06V63.0425H1346.37V60.2075ZM1353.72 63.8255C1354.92 63.8255 1355.98 64.0235 1356.9 64.4195C1357.84 64.8155 1358.57 65.3555 1359.09 66.0395C1359.61 66.7235 1359.87 67.5335 1359.87 68.4695C1359.87 69.3695 1359.61 70.1705 1359.09 70.8725C1358.57 71.5565 1357.84 72.0965 1356.9 72.4925C1355.98 72.8705 1354.92 73.0595 1353.72 73.0595C1352.53 73.0595 1351.47 72.8705 1350.53 72.4925C1349.59 72.0965 1348.87 71.5565 1348.34 70.8725C1347.82 70.1705 1347.56 69.3695 1347.56 68.4695C1347.56 67.5335 1347.82 66.7235 1348.34 66.0395C1348.87 65.3555 1349.59 64.8155 1350.53 64.4195C1351.47 64.0235 1352.53 63.8255 1353.72 63.8255ZM1353.72 66.5525C1352.92 66.5525 1352.28 66.7145 1351.77 67.0385C1351.27 67.3445 1351.02 67.8215 1351.02 68.4695C1351.02 69.0815 1351.27 69.5495 1351.77 69.8735C1352.28 70.1975 1352.92 70.3595 1353.72 70.3595C1354.53 70.3595 1355.17 70.1975 1355.66 69.8735C1356.16 69.5495 1356.42 69.0815 1356.42 68.4695C1356.42 67.8215 1356.16 67.3445 1355.66 67.0385C1355.17 66.7145 1354.53 66.5525 1353.72 66.5525ZM1362.44 58.0475H1366.03V73.7075H1362.44V58.0475ZM1365.06 64.4735H1369.35V67.4165H1365.06V64.4735ZM1349.34 74.7605H1366.03V83.0495H1362.44V77.5955H1349.34V74.7605ZM1351.93 57.8855H1355.5V61.8545H1351.93V57.8855Z" fill="white"/>
<rect x="1270.75" y="19.752" width="25.5574" height="25.9733" rx="12.7787" fill="white"/>
<path d="M1286.95 33.7405V35.1936H1280.21L1280.12 34.0684L1284.02 27.8766H1285.49L1283.9 30.545L1281.95 33.7405H1286.95ZM1285.89 27.8766V37.2383H1284.04V27.8766H1285.89Z" fill="#3383FE"/>
<rect x="1251.55" y="183.549" width="298.903" height="115.903" rx="8.23001" fill="#E7F4FF"/>
<rect x="1251.55" y="183.549" width="298.903" height="115.903" rx="8.23001" stroke="#2097F6" stroke-width="1.09733"/>
<path d="M1374.38 230.888H1377.41V253.112H1374.38V230.888ZM1365.94 239H1371.1V241.568H1365.94V239ZM1369.78 231.296H1372.75V252.152H1369.78V231.296ZM1358.95 245.576H1360.51C1361.55 245.576 1362.5 245.56 1363.34 245.528C1364.21 245.496 1365.02 245.44 1365.79 245.36C1366.58 245.28 1367.37 245.16 1368.17 245L1368.43 247.592C1367.6 247.768 1366.78 247.896 1365.98 247.976C1365.18 248.056 1364.34 248.112 1363.44 248.144C1362.56 248.176 1361.58 248.192 1360.51 248.192H1358.95V245.576ZM1358.95 233.408H1367.45V235.928H1362.1V246.68H1358.95V233.408ZM1380.41 247.952H1400.54V250.544H1380.41V247.952ZM1388.85 243.056H1392.02V248.576H1388.85V243.056ZM1382.52 232.544H1398.33V243.464H1382.52V232.544ZM1395.19 235.064H1385.66V240.92H1395.19V235.064ZM1418.54 230.888H1421.56V253.112H1418.54V230.888ZM1410.09 239H1415.25V241.568H1410.09V239ZM1413.93 231.296H1416.91V252.152H1413.93V231.296ZM1403.11 245.576H1404.67C1405.71 245.576 1406.65 245.56 1407.5 245.528C1408.36 245.496 1409.18 245.44 1409.95 245.36C1410.73 245.28 1411.52 245.16 1412.32 245L1412.59 247.592C1411.76 247.768 1410.94 247.896 1410.14 247.976C1409.34 248.056 1408.49 248.112 1407.6 248.144C1406.72 248.176 1405.74 248.192 1404.67 248.192H1403.11V245.576ZM1403.11 233.408H1411.6V235.928H1406.25V246.68H1403.11V233.408ZM1439.8 230.864H1442.99V253.16H1439.8V230.864ZM1431.02 232.424C1432.15 232.424 1433.16 232.752 1434.04 233.408C1434.92 234.048 1435.61 234.968 1436.11 236.168C1436.62 237.352 1436.87 238.752 1436.87 240.368C1436.87 242 1436.62 243.416 1436.11 244.616C1435.61 245.8 1434.92 246.72 1434.04 247.376C1433.16 248.016 1432.15 248.336 1431.02 248.336C1429.9 248.336 1428.9 248.016 1428.02 247.376C1427.14 246.72 1426.44 245.8 1425.93 244.616C1425.43 243.416 1425.19 242 1425.19 240.368C1425.19 238.752 1425.43 237.352 1425.93 236.168C1426.44 234.968 1427.14 234.048 1428.02 233.408C1428.9 232.752 1429.9 232.424 1431.02 232.424ZM1431.02 235.328C1430.47 235.328 1429.99 235.52 1429.58 235.904C1429.16 236.288 1428.83 236.856 1428.59 237.608C1428.37 238.344 1428.26 239.264 1428.26 240.368C1428.26 241.456 1428.37 242.384 1428.59 243.152C1428.83 243.904 1429.16 244.472 1429.58 244.856C1429.99 245.24 1430.47 245.432 1431.02 245.432C1431.58 245.432 1432.07 245.24 1432.48 244.856C1432.9 244.472 1433.22 243.904 1433.44 243.152C1433.68 242.384 1433.8 241.456 1433.8 240.368C1433.8 239.264 1433.68 238.344 1433.44 237.608C1433.22 236.856 1432.9 236.288 1432.48 235.904C1432.07 235.52 1431.58 235.328 1431.02 235.328Z" fill="#2097F6"/>
<rect x="1251.55" y="368.549" width="298.903" height="115.903" rx="8.23001" fill="#E7F4FF"/>
<rect x="1251.55" y="368.549" width="298.903" height="115.903" rx="8.23001" stroke="#2097F6" stroke-width="1.09733"/>
<path d="M1388.78 416.536H1391.57V417.592C1391.57 418.44 1391.43 419.264 1391.16 420.064C1390.9 420.848 1390.52 421.584 1390.01 422.272C1389.49 422.96 1388.87 423.576 1388.13 424.12C1387.4 424.664 1386.54 425.128 1385.57 425.512C1384.61 425.88 1383.55 426.16 1382.4 426.352L1381.15 423.784C1382.17 423.656 1383.09 423.44 1383.89 423.136C1384.7 422.832 1385.41 422.472 1386.02 422.056C1386.65 421.64 1387.16 421.184 1387.56 420.688C1387.96 420.192 1388.26 419.68 1388.47 419.152C1388.68 418.624 1388.78 418.104 1388.78 417.592V416.536ZM1389.38 416.536H1392.17V417.592C1392.17 418.104 1392.27 418.624 1392.48 419.152C1392.69 419.68 1392.99 420.192 1393.39 420.688C1393.79 421.184 1394.29 421.64 1394.9 422.056C1395.53 422.472 1396.24 422.832 1397.04 423.136C1397.85 423.44 1398.77 423.656 1399.8 423.784L1398.55 426.352C1397.38 426.16 1396.32 425.88 1395.36 425.512C1394.4 425.128 1393.55 424.664 1392.81 424.12C1392.08 423.56 1391.45 422.936 1390.94 422.248C1390.43 421.56 1390.04 420.824 1389.77 420.04C1389.51 419.256 1389.38 418.44 1389.38 417.592V416.536ZM1388.78 429.976H1391.97V438.136H1388.78V429.976ZM1380.41 427.96H1400.52V430.552H1380.41V427.96ZM1407.57 428.848H1410.72V434.104H1407.57V428.848ZM1414.6 428.848H1417.72V434.08H1414.6V428.848ZM1402.48 433.096H1422.62V435.688H1402.48V433.096ZM1404.76 417.328H1420.34V424.696H1407.96V428.464H1404.79V422.2H1417.17V419.872H1404.76V417.328ZM1404.79 427.144H1420.84V429.688H1404.79V427.144Z" fill="#2097F6"/>
</svg>
